<mxfile host="app.diagrams.net" modified="2024-07-07T17:08:53.625Z" agent="Mozilla/5.0 (Macintosh; Intel Mac OS X 10.15; rv:126.0) Gecko/20100101 Firefox/126.0" version="24.6.4" etag="0ryapVMfn9OOSEv8lNVS" type="github">
  <diagram name="Page-1" id="bMcwW4aHEgIV-03KdJfG">
    <mxGraphModel>
      <root>
        <mxCell id="0" />
        <mxCell id="1" parent="0" />
      </root>
    </mxGraphModel>
  </diagram>
</mxfile>
